<?xml version="1.0" standalone="no"?>
<!DOCTYPE svg PUBLIC "-//W3C//DTD SVG 20010904//EN"
 "http://www.w3.org/TR/2001/REC-SVG-20010904/DTD/svg10.dtd">
<svg version="1.0" xmlns="http://www.w3.org/2000/svg"
 width="500.000000pt" height="500.000000pt" viewBox="0 0 500.000000 500.000000"
 preserveAspectRatio="xMidYMid meet">

<g transform="translate(0.000000,500.000000) scale(0.100000,-0.100000)"
fill="#000000" stroke="none">
<path d="M2508 3463 c-16 -2 -28 -10 -28 -17 0 -16 -232 -155 -345 -206 -125
-56 -195 -93 -195 -102 0 -4 -9 -8 -20 -8 -11 0 -20 -7 -20 -15 0 -8 5 -15 10
-15 6 0 10 -4 10 -10 0 -15 -21 -12 -34 6 -11 14 -25 11 -137 -30 -68 -26
-133 -51 -144 -56 -11 -5 -49 -21 -85 -36 -83 -33 -107 -44 -265 -119 -234
-111 -248 -119 -264 -147 -9 -15 -23 -27 -31 -25 -10 1 -16 -8 -18 -24 -7 -60
126 -64 286 -8 31 11 71 24 87 28 62 17 213 83 261 114 27 18 72 43 99 57 28
13 76 41 108 62 32 21 68 38 79 38 11 0 22 8 25 20 3 11 8 20 12 20 4 0 16 7
27 16 10 8 13 12 6 9 -11 -6 -12 -3 -3 14 10 17 15 19 31 11 16 -9 20 -7 20 6
0 12 6 15 24 10 14 -3 28 -2 31 4 3 5 18 10 33 10 15 0 43 10 62 22 19 11 69
38 110 60 41 21 95 52 120 68 25 16 61 38 81 49 20 11 50 32 68 47 35 30 34
30 116 -31 145 -108 378 -250 399 -242 8 3 17 -1 20 -9 4 -10 13 -13 31 -8 17
4 27 2 31 -9 3 -9 13 -13 25 -10 17 5 24 -5 20 -29 0 -4 8 -10 19 -13 11 -4
20 -13 20 -20 0 -15 38 -40 47 -31 3 2 15 -4 27 -15 45 -40 83 -67 133 -92 29
-14 63 -36 75 -47 13 -11 34 -27 48 -34 14 -7 34 -18 45 -24 39 -23 172 -81
201 -88 16 -4 34 -10 39 -14 14 -10 105 -43 130 -47 11 -1 45 -7 75 -13 59
-11 104 0 114 26 7 17 -3 44 -15 44 -5 0 -26 17 -47 38 -53 52 -443 255 -727
378 -120 52 -120 52 -141 32 -19 -17 -22 -17 -27 -4 -4 10 -1 16 8 16 21 0 19
19 -2 27 -10 3 -25 12 -33 19 -9 7 -87 52 -174 99 -175 94 -346 208 -346 230
0 8 -6 15 -14 15 -7 0 -26 2 -42 4 -16 2 -41 2 -56 -1z"/>
<path d="M2745 2810 c-8 -16 -15 -39 -15 -52 0 -13 -11 -75 -24 -138 -14 -63
-27 -146 -31 -185 -4 -38 -16 -108 -26 -154 -23 -99 -18 -136 19 -155 35 -17
118 2 143 33 18 22 19 29 43 281 28 285 26 332 -13 371 -39 39 -76 39 -96 -1z"/>
<path d="M1910 2803 c-58 -11 -90 -77 -90 -186 0 -111 58 -175 148 -163 60 8
90 29 113 79 38 84 15 184 -57 247 -34 29 -54 34 -114 23z m61 -143 c21 -12
27 -74 8 -85 -15 -10 -59 35 -59 60 0 36 16 43 51 25z"/>
<path d="M2474 2638 c-28 -32 -74 -95 -107 -147 -16 -25 -40 -53 -53 -64 -38
-29 -77 -103 -70 -131 10 -42 117 -48 131 -8 3 9 16 30 29 45 l23 28 35 -35
c46 -46 88 -49 117 -7 26 36 21 51 -36 115 -24 26 -43 52 -43 57 0 5 10 30 23
57 27 56 23 105 -8 110 -12 2 -30 -7 -41 -20z"/>
<path d="M3075 2646 c-44 -19 -50 -32 -63 -125 -10 -71 -9 -89 3 -114 8 -17
15 -52 15 -79 0 -65 34 -103 83 -93 44 9 67 39 67 86 l0 39 55 0 c51 0 56 -2
67 -27 7 -17 12 -90 12 -185 1 -87 3 -158 6 -158 3 0 15 7 26 15 17 12 22 29
28 97 4 46 2 124 -3 173 -6 50 -7 115 -3 145 9 67 -5 179 -25 202 -29 33 -210
49 -268 24z m73 -316 c1 -19 -2 -42 -8 -50 -21 -33 -100 43 -85 82 4 11 17 13
48 9 40 -6 42 -8 45 -41z"/>
<path d="M1723 2374 c-16 -16 -23 -31 -18 -42 3 -9 9 -29 12 -45 6 -30 40 -58
88 -74 34 -11 127 4 187 31 21 9 62 16 91 16 73 0 122 21 135 59 9 25 7 32
-16 54 l-27 26 -213 0 -213 0 -26 -25z"/>
<path d="M2046 2187 c-14 -11 -17 -21 -12 -45 3 -18 9 -46 12 -62 4 -17 -1
-51 -10 -79 -25 -78 -22 -104 20 -136 31 -24 38 -26 64 -15 50 21 83 129 72
241 -4 40 -11 55 -39 79 -36 32 -77 39 -107 17z"/>
<path d="M1805 2145 c-32 -31 -35 -117 -6 -152 37 -44 161 -18 161 34 0 12 -4
24 -9 28 -5 3 -12 18 -16 35 -17 76 -82 104 -130 55z"/>
<path d="M2985 2109 c-4 -11 -2 -26 3 -31 16 -16 88 -26 185 -27 77 -1 87 1
87 17 0 45 -19 53 -147 58 -117 5 -122 4 -128 -17z"/>
<path d="M2508 1940 c-34 -33 -40 -43 -28 -50 9 -5 19 -5 27 2 9 7 17 7 28 -2
8 -7 16 -11 16 -9 3 9 6 99 4 99 -2 0 -23 -18 -47 -40z"/>
<path d="M2403 1938 c-52 -99 -63 -129 -48 -134 8 -4 21 -4 29 -1 15 6 69 144
60 158 -10 17 -23 9 -41 -23z"/>
<path d="M2770 1951 c0 -24 -10 -27 -28 -9 -9 9 -12 6 -12 -14 0 -39 10 -58
30 -58 25 0 39 21 42 60 2 26 -1 35 -14 38 -13 2 -18 -3 -18 -17z"/>
<path d="M3062 1954 c-29 -20 -28 -34 2 -34 16 0 27 -7 31 -20 9 -28 35 -26
35 3 0 23 -25 67 -38 67 -4 0 -18 -7 -30 -16z"/>
<path d="M2283 1943 c-3 -9 1 -19 9 -24 10 -5 14 -18 10 -34 -3 -20 0 -25 16
-25 16 0 23 8 28 34 7 42 2 52 -32 59 -17 3 -27 0 -31 -10z"/>
<path d="M2871 1941 c-22 -14 -3 -32 27 -25 l27 7 -22 -25 c-13 -13 -23 -30
-23 -36 0 -13 28 -16 54 -6 23 9 20 24 -6 24 -20 0 -20 1 -3 20 9 10 15 26 12
35 -7 16 -44 20 -66 6z"/>
<path d="M2449 1857 c7 -10 20 -17 27 -17 8 0 14 -7 14 -15 0 -8 9 -15 20 -15
11 0 20 5 20 10 0 6 14 10 30 10 31 0 41 14 16 23 -8 3 -43 9 -78 13 -58 7
-62 6 -49 -9z"/>
<path d="M3130 1856 c-60 -17 -90 -34 -90 -51 0 -23 23 -23 90 2 36 12 66 23
67 23 2 0 3 9 3 20 0 23 -7 23 -70 6z"/>
<path d="M2690 1852 c0 -20 28 -32 75 -32 54 0 82 11 71 29 -8 13 -146 16
-146 3z"/>
<path d="M2900 1811 c0 -11 5 -23 10 -26 18 -11 10 -25 -15 -25 -24 0 -35 -23
-17 -33 11 -7 125 14 139 25 21 17 4 29 -30 23 -29 -6 -33 -3 -44 24 -13 34
-43 42 -43 12z"/>
<path d="M2735 1796 c-16 -12 -18 -17 -7 -28 10 -10 16 -10 32 0 23 14 27 0 5
-18 -8 -7 -15 -19 -15 -26 0 -19 44 -38 67 -29 16 6 15 8 -7 16 -34 14 -35 16
-16 38 38 42 -12 82 -59 47z"/>
<path d="M2460 1790 c-13 -8 -13 -11 2 -26 14 -14 20 -15 32 -4 10 8 16 8 16
2 0 -6 -10 -18 -22 -27 -31 -21 -13 -49 33 -53 l34 -2 -27 15 c-33 19 -35 26
-8 43 11 7 20 21 20 31 0 29 -48 41 -80 21z"/>
</g>
</svg>
